<svg xmlns="http://www.w3.org/2000/svg" width="1050" height="220" viewBox="0 0 1050 220" fill="currentColor" style="color:#e5e9f2">
  <title>GLEVIO custom uppercase wordmark</title>
  <g id="wordmark" fill-rule="evenodd">
    <path id="glyph-G" d="M182 20H88C43 20 20 45 20 90V130C20 175 43 200 88 200H136C170 200 190 180 190 148V127C190 104 173 89 146 89H100V124H142C150 124 154 128 154 136V146C154 158 146 165 132 165H87C65 165 60 150 60 129V91C60 67 65 55 87 55H157Z"/>
    <path id="glyph-L" d="M227 20H265V153Q265 160 272 160H348Q352 160 352 164V196Q352 200 348 200H251C232 200 223 191 223 172V24Q223 20 227 20Z"/>
    <path id="glyph-E" d="M536 20H425C392 20 374 42 374 75V145C374 182 392 200 425 200H510L536 162H434C420 162 414 156 414 143V128H496L520 92H414V77C414 64 420 58 434 58H510Z"/>
    <path id="glyph-V" d="M548 20H592L646 155L700 20H744L675 190Q671 200 660 200H632Q621 200 617 190Z"/>
    <path id="glyph-I" d="M781 20H813Q817 20 817 24V196Q817 200 813 200H781Q777 200 777 196V24Q777 20 781 20Z"/>
    <path id="glyph-O" d="M915 20H965C1007 20 1030 44 1030 89V131C1030 176 1007 200 965 200H915C873 200 850 176 850 131V89C850 44 873 20 915 20Z M916 58C898 58 890 70 890 92V128C890 150 898 162 916 162H964C982 162 990 150 990 128V92C990 70 982 58 964 58Z"/>
  </g>
</svg>
